<svg width="30" height="30" viewBox="0 0 30 30" fill="none" xmlns="http://www.w3.org/2000/svg">
<path d="M29.3441 14.0271L14.1646 0.852497C14.0481 0.752051 13.8994 0.695801 13.7427 0.695801H10.1869C9.8896 0.695801 9.75299 1.06544 9.97799 1.2583L24.0485 13.4726H0.536028C0.359242 13.4726 0.2146 13.6172 0.2146 13.794V16.2047C0.2146 16.3815 0.359242 16.5262 0.536028 16.5262H24.0445L9.97398 28.7404C9.74897 28.9373 9.88558 29.3029 10.1829 29.3029H13.8592C13.9356 29.3029 14.0119 29.2748 14.0682 29.2226L29.3441 15.9717C29.4832 15.8507 29.5947 15.7014 29.6711 15.5336C29.7475 15.3659 29.7871 15.1837 29.7871 14.9994C29.7871 14.815 29.7475 14.6329 29.6711 14.4651C29.5947 14.2974 29.4832 14.148 29.3441 14.0271Z" fill="#038642" fill-opacity="0.85"/>
</svg>
