<svg width="24" height="22" viewBox="0 0 24 22" fill="none" xmlns="http://www.w3.org/2000/svg">
<path d="M22.61 7.74571L15.8091 6.75732L12.7689 0.593922C12.6859 0.425172 12.5493 0.288565 12.3805 0.205529C11.9573 -0.00339933 11.443 0.170708 11.2314 0.593922L8.19123 6.75732L1.39033 7.74571C1.20283 7.77249 1.0314 7.86089 0.900155 7.99481C0.741481 8.1579 0.654044 8.37732 0.657058 8.60484C0.660071 8.83236 0.753288 9.04938 0.916226 9.20821L5.83676 14.0055L4.67426 20.7796C4.647 20.9372 4.66444 21.0993 4.7246 21.2475C4.78476 21.3956 4.88523 21.524 5.01462 21.618C5.14402 21.7119 5.29716 21.7678 5.45667 21.7792C5.61619 21.7905 5.7757 21.757 5.91712 21.6823L12.0002 18.4841L18.0832 21.6823C18.2493 21.7707 18.4421 21.8002 18.6269 21.768C19.093 21.6877 19.4064 21.2457 19.326 20.7796L18.1635 14.0055L23.0841 9.20821C23.218 9.07696 23.3064 8.90553 23.3332 8.71803C23.4055 8.24928 23.0787 7.81535 22.61 7.74571ZM16.093 13.3305L17.06 18.9636L12.0002 16.3064L6.94033 18.9662L7.9073 13.3332L3.81444 9.34214L9.47158 8.51981L12.0002 3.39571L14.5287 8.51981L20.1859 9.34214L16.093 13.3305Z" fill="#FAAD14"/>
</svg>
