<svg width="20" height="20" viewBox="0 0 20 20" fill="none" xmlns="http://www.w3.org/2000/svg">
<path d="M19.2838 7.2755L13.333 6.41066L10.6729 1.01769C10.6002 0.870034 10.4807 0.750503 10.333 0.677847C9.96273 0.495034 9.51273 0.647378 9.32757 1.01769L6.66741 6.41066L0.716633 7.2755C0.552571 7.29894 0.402571 7.37628 0.287727 7.49347C0.148887 7.63617 0.0723803 7.82816 0.0750171 8.02724C0.077654 8.22632 0.159219 8.41622 0.301789 8.55519L4.60726 12.7528L3.59007 18.6802C3.56622 18.8181 3.58148 18.9599 3.63411 19.0895C3.68675 19.2192 3.77467 19.3315 3.88789 19.4137C4.00111 19.496 4.1351 19.5448 4.27468 19.5548C4.41426 19.5647 4.55383 19.5354 4.67757 19.47L10.0002 16.6716L15.3229 19.47C15.4682 19.5474 15.6369 19.5732 15.7987 19.545C16.2065 19.4747 16.4807 19.088 16.4104 18.6802L15.3932 12.7528L19.6987 8.55519C19.8159 8.44035 19.8932 8.29035 19.9166 8.12628C19.9799 7.71613 19.694 7.33644 19.2838 7.2755Z" fill="#FAAD14"/>
</svg>
