<svg width="22" height="18" viewBox="0 0 22 18" fill="none" xmlns="http://www.w3.org/2000/svg">
<path d="M11 17.25C11 17.25 1.625 12 1.625 5.62499C1.625 4.49801 2.01546 3.40584 2.72996 2.5343C3.44445 1.66275 4.43884 1.06568 5.54393 0.844662C6.64903 0.623642 7.79657 0.79233 8.79131 1.32203C9.78605 1.85172 10.5665 2.7097 11 3.74999C11.4335 2.7097 12.2139 1.85172 13.2087 1.32203C14.2034 0.79233 15.351 0.623642 16.4561 0.844662C17.5612 1.06568 18.5555 1.66275 19.27 2.5343C19.9845 3.40584 20.375 4.49801 20.375 5.62499C20.375 12 11 17.25 11 17.25Z" stroke="#475156" stroke-width="1.5" stroke-linecap="round" stroke-linejoin="round"/>
</svg>
